<svg width="179" height="179" viewBox="0 0 179 179" fill="none" xmlns="http://www.w3.org/2000/svg">
<path fill-rule="evenodd" clip-rule="evenodd" d="M49.6836 20.165C33.3806 20.165 20.1644 33.3812 20.1644 49.6842L20.1644 128.887C20.1644 145.19 33.3806 158.406 49.6836 158.406L128.887 158.406C145.19 158.406 158.406 145.19 158.406 128.887L158.406 49.6842C158.406 33.3812 145.19 20.165 128.887 20.165L49.6836 20.165ZM-0.000313863 49.6842C-0.000309065 22.2445 22.2439 0.00024803 49.6836 0.000252828L128.887 0.000266676C156.326 0.000271474 178.571 22.2445 178.571 49.6842L178.571 128.887C178.571 156.327 156.326 178.571 128.887 178.571L49.6836 178.571C22.2439 178.571 -0.000332509 156.327 -0.000327711 128.887L-0.000313863 49.6842ZM92.801 67.5782C88.3071 66.9118 83.7175 67.6794 79.685 69.7717C75.6525 71.8641 72.3824 75.1748 70.3399 79.2328C68.2974 83.2908 67.5865 87.8895 68.3082 92.3748C69.03 96.8601 71.1476 101.004 74.3601 104.216C77.5725 107.428 81.716 109.546 86.2013 110.268C90.6867 110.99 95.2854 110.279 99.3434 108.236C103.401 106.194 106.712 102.924 108.804 98.8912C110.897 94.8587 111.664 90.2691 110.998 85.7752C110.318 81.1913 108.182 76.9475 104.905 73.6707C101.629 70.3939 97.3849 68.2579 92.801 67.5782ZM70.3977 51.8731C78.1949 47.8272 87.0694 46.343 95.7588 47.6315C104.622 48.9459 112.828 53.0761 119.164 59.4121C125.5 65.7481 129.63 73.9539 130.945 82.8174C132.233 91.5068 130.749 100.381 126.703 108.178C122.657 115.976 116.256 122.299 108.409 126.248C100.563 130.197 91.6706 131.572 82.9978 130.177C74.3249 128.781 66.3129 124.686 60.1014 118.475C53.8899 112.263 49.7952 104.251 48.3996 95.5784C47.004 86.9055 48.3787 78.0134 52.3281 70.1669C56.2774 62.3203 62.6004 55.9189 70.3977 51.8731ZM132.851 34.3718C126.586 34.3718 121.508 39.4501 121.508 45.7145C121.508 51.9789 126.586 57.0572 132.851 57.0572L132.937 57.0572C139.202 57.0572 144.28 51.9789 144.28 45.7145C144.28 39.4501 139.202 34.3718 132.937 34.3718L132.851 34.3718Z" fill="#FF2070"/>
</svg>
