<svg width="179" height="179" viewBox="0 0 179 179" fill="none" xmlns="http://www.w3.org/2000/svg">
<path fill-rule="evenodd" clip-rule="evenodd" d="M49.6839 20.1647C33.3809 20.1647 20.1648 33.3809 20.1648 49.6839L20.1647 128.887C20.1647 145.19 33.3809 158.406 49.6839 158.406L128.887 158.406C145.19 158.406 158.406 145.19 158.406 128.887L158.406 49.6839C158.406 33.3809 145.19 20.1648 128.887 20.1648L49.6839 20.1647ZM2.18306e-05 49.6839C2.66283e-05 22.2442 22.2443 3.88931e-06 49.6839 8.68701e-06L128.887 2.25353e-05C156.327 2.7333e-05 178.571 22.2443 178.571 49.6839L178.571 128.887C178.571 156.327 156.327 178.571 128.887 178.571L49.6839 178.571C22.2442 178.571 3.18455e-06 156.327 7.98226e-06 128.887L2.18306e-05 49.6839ZM92.8013 67.5779C88.3074 66.9115 83.7178 67.6791 79.6853 69.7715C75.6528 71.8639 72.3827 75.1745 70.3402 79.2325C68.2977 83.2905 67.5868 87.8892 68.3085 92.3745C69.0303 96.8599 71.148 101.003 74.3604 104.216C77.5728 107.428 81.7164 109.546 86.2017 110.268C90.687 110.989 95.2857 110.279 99.3437 108.236C103.402 106.193 106.712 102.923 108.805 98.8909C110.897 94.8584 111.665 90.2688 110.998 85.775C110.319 81.191 108.183 76.9472 104.906 73.6704C101.629 70.3937 97.3852 68.2576 92.8013 67.5779ZM70.398 51.8728C78.1953 47.827 87.0697 46.3428 95.7591 47.6313C104.623 48.9456 112.828 53.0758 119.164 59.4118C125.5 65.7478 129.631 73.9536 130.945 82.8171C132.233 91.5065 130.749 100.381 126.703 108.178C122.658 115.975 116.256 122.298 108.41 126.248C100.563 130.197 91.671 131.572 82.9981 130.176C74.3253 128.781 66.3133 124.686 60.1018 118.474C53.8903 112.263 49.7955 104.251 48.3999 95.5781C47.0043 86.9053 48.379 78.0132 52.3284 70.1666C56.2778 62.3201 62.6008 55.9187 70.398 51.8728ZM132.851 34.3716C126.587 34.3716 121.508 39.4499 121.508 45.7143C121.508 51.9786 126.587 57.0569 132.851 57.0569L132.938 57.0569C139.202 57.0569 144.28 51.9786 144.28 45.7143C144.28 39.4499 139.202 34.3716 132.938 34.3716L132.851 34.3716Z" fill="#F3EDE5"/>
</svg>
