<svg width="179" height="179" viewBox="0 0 179 179" fill="none" xmlns="http://www.w3.org/2000/svg">
<path fill-rule="evenodd" clip-rule="evenodd" d="M20.2048 49.6842C20.2048 33.3812 33.421 20.165 49.7239 20.165L128.927 20.165C145.23 20.165 158.446 33.3812 158.446 49.6842L158.446 128.887C158.446 145.19 145.23 158.406 128.927 158.406L49.7239 158.406C33.4209 158.406 20.2047 145.19 20.2047 128.887L20.2048 49.6842ZM49.724 0.000252828C22.2843 0.00024803 0.0400352 22.2445 0.0400304 49.6842L0.0400165 128.887C0.0400117 156.327 22.2843 178.571 49.7239 178.571L128.927 178.571C156.367 178.571 178.611 156.327 178.611 128.887L178.611 49.6842C178.611 22.2445 156.367 0.000271474 128.927 0.000266676L49.724 0.000252828ZM114.822 44.7279C114.804 43.8442 114.788 43.1545 114.772 42.6739C114.764 42.4575 114.753 42.1731 114.735 41.9063L114.735 41.8971C114.729 41.816 114.704 41.4313 114.637 40.9819C114.615 40.8419 114.573 40.5787 114.5 40.2534L114.497 40.2424C114.452 40.0393 114.266 39.2143 113.819 38.245C113.529 37.6656 112.571 36.2111 111.845 35.3896C110.358 34.1451 105.943 32.4628 103.125 32.4986C100.764 33.1641 97.5329 35.3318 96.5797 36.433C96.1097 37.1201 95.4754 38.3033 95.2762 38.7744C94.9471 39.6108 94.8084 40.3034 94.7703 40.4935L94.7702 40.4944C94.7116 40.787 94.6776 41.0243 94.6601 41.1564C94.6245 41.4238 94.6066 41.6398 94.5989 41.7382C94.582 41.9539 94.5736 42.1422 94.5695 42.243C94.5602 42.4684 94.5542 42.7178 94.5498 42.9473C94.5407 43.425 94.5337 44.0728 94.5282 44.8449C94.5062 47.941 94.5042 53.6309 94.5141 60.5314C94.534 74.3191 94.6018 93.1109 94.6585 106.257C94.6322 107.496 94.4685 109.443 94.1456 111.417C93.9835 112.409 93.7978 113.304 93.6041 114.042C93.5083 114.407 93.4194 114.7 93.343 114.923C93.3054 115.033 93.274 115.117 93.2502 115.177C93.2262 115.238 93.2135 115.265 93.2146 115.262C91.6393 118.619 88.908 121.258 85.5606 122.7C82.2157 124.141 78.4777 124.292 75.0491 123.136C71.6195 121.98 68.7141 119.588 66.8987 116.391C65.0819 113.191 64.4878 109.411 65.2469 105.773C66.0059 102.135 68.0596 98.9164 70.9969 96.7195C73.9317 94.5244 77.5435 93.5009 81.1455 93.8194C86.6922 94.31 91.5863 90.2111 92.0768 84.6644C92.5673 79.1177 88.4685 74.2236 82.9218 73.7331C74.3514 72.9752 65.8113 75.417 58.9193 80.5718C52.0297 85.7248 47.265 93.2296 45.5072 101.655C43.7495 110.079 45.1152 118.864 49.363 126.346C53.6123 133.831 60.4548 139.496 68.6075 142.245C76.7613 144.993 85.6346 144.624 93.5383 141.22C101.44 137.816 107.812 131.621 111.469 123.83C112.845 120.897 113.606 117.362 114.046 114.672C114.516 111.795 114.785 108.816 114.822 106.491L114.824 106.388L114.824 106.285C114.786 97.6463 114.744 86.5493 114.714 76.0395C116.678 77.2903 118.708 78.3834 120.757 79.2807C124.826 81.0619 129.682 82.3792 134.573 81.9511C140.12 81.4654 144.223 76.5749 143.737 71.0278C143.252 65.4807 138.361 61.3775 132.814 61.8632C132.482 61.8922 131.142 61.8146 128.845 60.8089C126.679 59.8606 124.263 58.3432 122.005 56.3867C117.132 52.1642 114.879 47.6528 114.822 44.7279Z" fill="#FF2070"/>
</svg>
