<svg width="180" height="179" viewBox="0 0 180 179" fill="none" xmlns="http://www.w3.org/2000/svg">
<path fill-rule="evenodd" clip-rule="evenodd" d="M20.7357 49.6839C20.7357 33.3809 33.9519 20.1647 50.2549 20.1647L129.458 20.1648C145.761 20.1648 158.977 33.3809 158.977 49.6839L158.977 128.887C158.977 145.19 145.761 158.406 129.458 158.406L50.2548 158.406C33.9518 158.406 20.7357 145.19 20.7357 128.887L20.7357 49.6839ZM50.2549 8.68701e-06C22.8152 3.88931e-06 0.570949 22.2442 0.570945 49.6839L0.570931 128.887C0.570926 156.327 22.8152 178.571 50.2548 178.571L129.458 178.571C156.898 178.571 179.142 156.327 179.142 128.887L179.142 49.6839C179.142 22.2443 156.898 2.7333e-05 129.458 2.25353e-05L50.2549 8.68701e-06ZM115.353 44.7276C115.335 43.844 115.319 43.1543 115.302 42.6736C115.295 42.4573 115.284 42.1728 115.266 41.9061L115.266 41.8969C115.26 41.8158 115.235 41.431 115.167 40.9816C115.146 40.8417 115.104 40.5785 115.031 40.2531L115.028 40.2422C114.982 40.0391 114.797 39.214 114.35 38.2448C114.06 37.6654 113.102 36.2109 112.376 35.3894C110.889 34.1449 106.474 32.4625 103.656 32.4984C101.295 33.1638 98.0638 35.3316 97.1107 36.4328C96.6406 37.1199 96.0063 38.3031 95.8071 38.7741C95.478 39.6105 95.3393 40.3032 95.3012 40.4933L95.3011 40.4941C95.2425 40.7868 95.2085 41.024 95.191 41.1562C95.1554 41.4236 95.1375 41.6395 95.1298 41.738C95.113 41.9537 95.1045 42.1419 95.1004 42.2427C95.0911 42.4681 95.0851 42.7176 95.0807 42.9471C95.0716 43.4248 95.0646 44.0726 95.0591 44.8447C95.0371 47.9408 95.0351 53.6306 95.045 60.5312C95.0649 74.3188 95.1327 93.1106 95.1894 106.257C95.1631 107.496 94.9995 109.442 94.6765 111.417C94.5144 112.408 94.3288 113.304 94.135 114.042C94.0393 114.407 93.9503 114.7 93.8739 114.923C93.8363 115.033 93.8049 115.117 93.7811 115.177C93.7571 115.238 93.7445 115.264 93.7455 115.262C92.1702 118.619 89.439 121.258 86.0915 122.7C82.7466 124.141 79.0086 124.292 75.58 123.136C72.1504 121.98 69.245 119.588 67.4296 116.39C65.6128 113.19 65.0187 109.411 65.7778 105.773C66.5368 102.135 68.5905 98.9162 71.5278 96.7193C74.4626 94.5242 78.0744 93.5007 81.6764 93.8192C87.2231 94.3097 92.1172 90.2109 92.6077 84.6642C93.0982 79.1175 88.9994 74.2234 83.4527 73.7328C74.8823 72.9749 66.3422 75.4168 59.4502 80.5716C52.5606 85.7246 47.7959 93.2293 46.0381 101.654C44.2804 110.079 45.6461 118.864 49.894 126.346C54.1432 133.831 60.9857 139.496 69.1384 142.244C77.2922 144.993 86.1655 144.624 94.0692 141.22C101.97 137.816 108.343 131.621 112 123.83C113.376 120.897 114.137 117.362 114.577 114.672C115.047 111.794 115.316 108.816 115.353 106.49L115.355 106.388L115.354 106.285C115.317 97.6461 115.275 86.549 115.245 76.0392C117.209 77.29 119.239 78.3832 121.288 79.2804C125.356 81.0617 130.212 82.379 135.104 81.9508C140.651 81.4652 144.754 76.5747 144.268 71.0276C143.783 65.4804 138.892 61.3773 133.345 61.8629C133.013 61.892 131.673 61.8143 129.376 60.8087C127.21 59.8603 124.794 58.3429 122.536 56.3864C117.663 52.1639 115.41 47.6525 115.353 44.7276Z" fill="#F3EDE5"/>
</svg>
