<svg width="218" height="203" viewBox="0 0 218 203" fill="none" xmlns="http://www.w3.org/2000/svg">
<path d="M109.226 150.033V127.255C109.226 126.196 108.653 125.22 107.728 124.704L89.7344 114.654C88.8508 114.16 87.7747 114.159 86.8899 114.651L68.7905 124.705C67.8625 125.22 67.287 126.198 67.287 127.26V148.334C67.287 149.385 66.7232 150.354 65.8102 150.874L47.832 161.11C46.929 161.624 45.821 161.62 44.9218 161.1L27.2588 150.878C26.356 150.355 25.8 149.391 25.8 148.348V127.251C25.8 126.194 25.2296 125.22 24.3082 124.702L6.4918 114.698C5.57039 114.18 5 113.206 5 112.149V91.1748C5 90.1267 5.56119 89.1588 6.47082 88.6381L24.3292 78.4154C25.2388 77.8947 25.8 76.9268 25.8 75.8787V54.9842C25.8 53.9453 26.3514 52.9845 27.2484 52.4605L44.9114 42.1411C45.816 41.6127 46.9342 41.6087 47.8424 42.1308L65.8344 52.4718C66.7341 52.9889 67.8406 52.9902 68.7415 52.4752L86.8408 42.1284C87.7512 41.6079 88.313 40.6396 88.313 39.5909V19.0279C88.313 17.9943 88.8589 17.0375 89.7488 16.5116L107.735 5.88135C108.654 5.33792 109.797 5.33927 110.715 5.88489L128.533 16.4729C129.453 17.0198 130.599 17.0198 131.519 16.4729L149.345 5.88016C150.259 5.33705 151.396 5.33303 152.313 5.86966L170.518 16.5138C171.414 17.038 171.965 17.9985 171.965 19.037V39.6918C171.965 40.7472 171.396 41.7206 170.477 42.2385L152.315 52.4683C151.395 52.9863 150.826 53.9597 150.826 55.015V75.8651C150.826 76.9205 151.395 77.8939 152.315 78.4118L170.511 88.661C171.412 89.1686 172.515 89.1621 173.41 88.6441L191.071 78.4231C191.979 77.8977 193.099 77.899 194.005 78.4266L211.547 88.6346C212.447 89.158 213 90.1202 213 91.1609V112.163C213 113.212 212.437 114.181 211.526 114.701L194.013 124.699C193.102 125.219 192.539 126.188 192.539 127.237V148.348C192.539 149.391 191.983 150.355 191.08 150.878L173.424 161.096C172.521 161.618 171.965 162.582 171.965 163.626V183.963C171.965 185.001 171.414 185.962 170.518 186.486L152.313 197.13C151.396 197.667 150.259 197.663 149.345 197.12L131.456 186.489C130.569 185.963 130.026 185.008 130.026 183.977V163.635C130.026 162.587 130.587 161.619 131.497 161.098L150.826 150.033" stroke="#F3EDE5" stroke-width="10" stroke-linecap="round"/>
</svg>
