<svg width="60" height="59" viewBox="0 0 60 59" fill="none" xmlns="http://www.w3.org/2000/svg">
<g id="mingcute:whatsapp-fill" clip-path="url(#clip0_1647_675)">
<g id="Group">
<path id="Vector" fill-rule="evenodd" clip-rule="evenodd" d="M29.6765 4.91666C16.0991 4.91666 5.09314 15.9226 5.09314 29.5C5.09314 34.1462 6.38376 38.4975 8.62822 42.2047L6.43539 49.6583C6.30949 50.0863 6.3012 50.5403 6.41141 50.9725C6.52161 51.4048 6.74624 51.7994 7.06167 52.1148C7.37711 52.4302 7.77169 52.6549 8.20396 52.7651C8.63622 52.8753 9.09019 52.867 9.51814 52.7411L16.9718 50.5482C20.8036 52.8667 25.1979 54.0894 29.6765 54.0833C43.2538 54.0833 54.2598 43.0774 54.2598 29.5C54.2598 15.9226 43.2538 4.91666 29.6765 4.91666ZM24.1157 35.0632C29.0889 40.034 33.836 40.6903 35.5126 40.7518C38.0618 40.8452 40.5448 38.8982 41.5109 36.639C41.6329 36.3579 41.6771 36.0493 41.6391 35.7453C41.601 35.4413 41.482 35.1531 41.2946 34.9108C39.9474 33.19 38.1258 31.9534 36.3459 30.7242C35.9743 30.4673 35.5177 30.3642 35.0717 30.4366C34.6258 30.5091 34.2252 30.7513 33.954 31.1127L32.479 33.362C32.4014 33.483 32.2806 33.5697 32.1412 33.6044C32.0018 33.6391 31.8544 33.6193 31.7292 33.5489C30.7286 32.9761 29.2708 32.0026 28.2236 30.9553C27.1763 29.9081 26.2618 28.5167 25.7481 27.58C25.6844 27.461 25.6659 27.323 25.6962 27.1915C25.7265 27.0599 25.8034 26.9438 25.9128 26.8647L28.1843 25.1782C28.5084 24.8964 28.7176 24.5052 28.772 24.079C28.8264 23.6529 28.7222 23.2217 28.4793 22.8674C27.3779 21.2547 26.0947 19.2045 24.2337 17.845C23.9936 17.671 23.7122 17.5625 23.4174 17.5301C23.1226 17.4978 22.8244 17.5428 22.5522 17.6607C20.2906 18.6292 18.3337 21.1122 18.4271 23.6664C18.4886 25.343 19.145 30.09 24.1157 35.0632Z" fill="#F3EDE5"/>
</g>
</g>
<defs>
<clipPath id="clip0_1647_675">
<rect width="59" height="59" fill="white" transform="translate(0.176483)"/>
</clipPath>
</defs>
</svg>
